<?xml version="1.0" encoding="UTF-8"?>
<svg xmlns="http://www.w3.org/2000/svg" xmlns:xlink="http://www.w3.org/1999/xlink" width="32px" height="32px" viewBox="0 0 32 32" version="1.1">
<g id="surface2">
<path style=" stroke:none;fill-rule:nonzero;fill:rgb(2.745098%,4.313725%,14.509804%);fill-opacity:1;" d="M 30.847656 24.363281 L 30.847656 25.160156 L 16.003906 30.28125 L 1.359375 26.089844 L 1.359375 19.632812 L 16.015625 23.546875 L 29.882812 19.261719 L 29.882812 14.871094 L 16.003906 18.785156 L 1.167969 15.25 L 1.167969 14.292969 L 16.011719 10.359375 L 30.65625 13.644531 L 30.65625 19.789062 L 16 24.34375 L 2.132812 20.726562 L 2.132812 25.578125 L 16.011719 29.480469 Z M 16.015625 17.984375 L 29.613281 14.171875 L 16.003906 11.128906 L 2.210938 14.859375 Z M 16.015625 17.984375 "/>
<path style=" stroke:none;fill-rule:nonzero;fill:rgb(18.039216%,32.156863%,63.921569%);fill-opacity:1;" d="M 30.847656 24.363281 L 16.011719 29.480469 L 2.132812 25.578125 L 9.308594 22.621094 L 16 24.34375 L 23.21875 22.128906 Z M 30.847656 24.363281 "/>
<path style=" stroke:none;fill-rule:nonzero;fill:rgb(54.509804%,81.176471%,85.882353%);fill-opacity:1;" d="M 29.882812 19.261719 L 16.015625 23.546875 L 1.359375 19.632812 L 9.308594 17.199219 L 16.003906 18.785156 L 22.324219 17.039062 Z M 29.882812 19.261719 "/>
<path style=" stroke:none;fill-rule:nonzero;fill:rgb(16.078431%,44.313725%,71.372549%);fill-opacity:1;" d="M 29.613281 14.171875 L 16.015625 17.984375 L 2.210938 14.859375 L 16.003906 11.128906 Z M 29.613281 14.171875 "/>
<path style=" stroke:none;fill-rule:nonzero;fill:rgb(56.078431%,76.470588%,12.156863%);fill-opacity:1;" d="M 13.175781 8.425781 C 10.195312 8.425781 7.769531 6.074219 7.769531 3.179688 L 7.769531 2.109375 L 10.796875 2.109375 C 13.777344 2.109375 16.203125 4.460938 16.203125 7.355469 L 16.203125 8.425781 Z M 13.175781 8.425781 "/>
<path style=" stroke:none;fill-rule:nonzero;fill:rgb(0.392157%,14.509804%,6.666667%);fill-opacity:1;" d="M 10.796875 2.484375 C 13.5625 2.484375 15.816406 4.667969 15.816406 7.355469 L 15.816406 8.050781 L 13.175781 8.050781 C 10.40625 8.050781 8.15625 5.867188 8.15625 3.179688 L 8.15625 2.484375 L 10.796875 2.484375 M 10.796875 1.734375 L 7.382812 1.734375 L 7.382812 3.179688 C 7.382812 6.285156 9.976562 8.800781 13.175781 8.800781 L 16.585938 8.800781 L 16.585938 7.355469 C 16.585938 4.25 13.996094 1.734375 10.796875 1.734375 Z M 10.796875 1.734375 "/>
<path style=" stroke:none;fill-rule:nonzero;fill:rgb(56.078431%,76.470588%,12.156863%);fill-opacity:1;" d="M 16 10.566406 L 16 9.496094 C 16 6.601562 18.425781 4.246094 21.40625 4.246094 L 24.429688 4.246094 L 24.429688 5.316406 C 24.429688 8.210938 22.003906 10.566406 19.027344 10.566406 Z M 16 10.566406 "/>
<path style=" stroke:none;fill-rule:nonzero;fill:rgb(0.392157%,14.509804%,6.666667%);fill-opacity:1;" d="M 24.042969 4.621094 L 24.042969 5.316406 C 24.042969 8.003906 21.792969 10.191406 19.027344 10.191406 L 16.386719 10.191406 L 16.386719 9.496094 C 16.386719 6.808594 18.636719 4.621094 21.40625 4.621094 L 24.042969 4.621094 M 24.816406 3.871094 L 21.40625 3.871094 C 18.207031 3.871094 15.613281 6.390625 15.613281 9.496094 L 15.613281 10.9375 L 19.027344 10.9375 C 22.222656 10.9375 24.816406 8.421875 24.816406 5.316406 Z M 24.816406 3.871094 "/>
<path style="fill:none;stroke-width:11.3386;stroke-linecap:butt;stroke-linejoin:miter;stroke:rgb(0.392157%,14.509804%,6.666667%);stroke-opacity:1;stroke-miterlimit:10;" d="M 297.572632 153.180542 L 297.572632 265.83252 " transform="matrix(0.0537815,0,0,0.0537815,0,0)"/>
<path style=" stroke:none;fill-rule:nonzero;fill:rgb(18.039216%,32.156863%,63.921569%);fill-opacity:1;" d="M 29.882812 14.871094 L 29.882812 19.261719 L 22.324219 17.039062 Z M 29.882812 14.871094 "/>
<path style=" stroke:none;fill-rule:nonzero;fill:rgb(44.313725%,63.137255%,78.431373%);fill-opacity:1;" d="M 9.308594 22.621094 L 2.132812 25.578125 L 2.132812 20.726562 Z M 9.308594 22.621094 "/>
</g>
</svg>
